# xmcd
#
# Track frame offsets:
#	150
#	28117
#	49729
#	75984
#	98269
#	129084
#	144856
#	160388
#	177585
#	192167
#	210479
#	225381
#	237625
#	252282
#	273064
#	293231
#	310460
#
# Disc length: 4367
#
# Revision: 1
# Processed by: cddbd v1.5.1PL0 Copyright (c) Steve Scherf et al.
# Submitted via: Feurio! 1.65 - http://www.feurio.com
# Normalized: r0:DSETVAR1,TDELIM( - )
#
DISCID=dd110d11
DTITLE=Various Artist - The Best Of Blues Guitar
DYEAR=1900
DGENRE=Blues
TTITLE0=Gary Moore - Still Got The Blues
TTITLE1=Eric Clapton - Layla(Live)
TTITLE2=Kenny Wayne Shepheerd Band - True Lies
TTITLE3=Dire Straits - Brother In Arms
TTITLE4=Stevie Ray Vanughan And Double Trouble - Little Wing
TTITLE5=Johnny Winter - Johnny Guitar
TTITLE6=Albert Collins - Don't Lose Your Cool
TTITLE7=B.B. King - Three O'clock Blues
TTITLE8=Keith Richards - I Could Have Stood You Up
TTITLE9=John Hammond, Jr - No One Can Forgive Me But My Baby
TTITLE10=Elmore James - Dust My Blues
TTITLE11=Johnny 'Guitar' Watson - Too Tired
TTITLE12=Colin James - Cadillac Baby
TTITLE13=John Lee Hooker - Boogie At Russian Hill
TTITLE14=Bill Perry - Love Scars
TTITLE15=The Duke Robillard Band - Love Slipped In
TTITLE16=Jimmy Reed - Cry Before I Go
EXTD=
EXTT0=
EXTT1=
EXTT2=
EXTT3=
EXTT4=
EXTT5=
EXTT6=
EXTT7=
EXTT8=
EXTT9=
EXTT10=
EXTT11=
EXTT12=
EXTT13=
EXTT14=
EXTT15=
EXTT16=
PLAYORDER=
